<svg xmlns="http://www.w3.org/2000/svg"
 xmlns:xlink="http://www.w3.org/1999/xlink"
 width="67px" height="54px"  viewBox="0 0 67 54">
<path fill-rule="evenodd"  fill="#fe3e57"
 d="M2.75,1.0 C3.7164307,1.0 4.5,1.7764893 4.5,2.7341309 C4.5,3.6918945 3.7164307,4.468384 2.75,4.468384 C1.7834473,4.468384 1.0,3.6918945 1.0,2.7341309 C1.0,1.7764893 1.7834473,1.0 2.75,1.0 ZM15.046875,1.0 C16.021973,1.0 16.8125,1.7764893 16.8125,2.7341309 C16.8125,3.6918945 16.021973,4.468384 15.046875,4.468384 C14.071777,4.468384 13.281128,3.6918945 13.281128,2.7341309 C13.281128,1.7764893 14.071777,1.0 15.046875,1.0 ZM27.343628,1.0 C28.31018,1.0 29.09375,1.7764893 29.09375,2.7341309 C29.09375,3.6918945 28.31018,4.468384 27.343628,4.468384 C26.377197,4.468384 25.59375,3.6918945 25.59375,2.7341309 C25.59375,1.7764893 26.377197,1.0 27.343628,1.0 ZM39.65625,1.0 C40.62268,1.0 41.406128,1.7764893 41.406128,2.7341309 C41.406128,3.6918945 40.62268,4.468384 39.65625,4.468384 C38.689697,4.468384 37.90625,3.6918945 37.90625,2.7341309 C37.90625,1.7764893 38.689697,1.0 39.65625,1.0 ZM51.953003,1.0 C52.928223,1.0 53.71875,1.7764893 53.71875,2.7341309 C53.71875,3.6918945 52.928223,4.468384 51.953003,4.468384 C50.977905,4.468384 50.1875,3.6918945 50.1875,2.7341309 C50.1875,1.7764893 50.977905,1.0 51.953003,1.0 ZM64.25,1.0 C65.21643,1.0 66.0,1.7764893 66.0,2.7341309 C66.0,3.6918945 65.21643,4.468384 64.25,4.468384 C63.283447,4.468384 62.499878,3.6918945 62.499878,2.7341309 C62.499878,1.7764893 63.283447,1.0 64.25,1.0 ZM2.75,13.124756 C3.7164307,13.124756 4.5,13.901245 4.5,14.859375 C4.5,15.817017 3.7164307,16.593628 2.75,16.593628 C1.7834473,16.593628 1.0,15.817017 1.0,14.859375 C1.0,13.901245 1.7834473,13.124756 2.75,13.124756 ZM15.046875,13.124756 C16.021973,13.124756 16.8125,13.901245 16.8125,14.859375 C16.8125,15.817017 16.021973,16.593628 15.046875,16.593628 C14.071777,16.593628 13.281128,15.817017 13.281128,14.859375 C13.281128,13.901245 14.071777,13.124756 15.046875,13.124756 ZM27.343628,13.124756 C28.31018,13.124756 29.09375,13.901245 29.09375,14.859375 C29.09375,15.817017 28.31018,16.593628 27.343628,16.593628 C26.377197,16.593628 25.59375,15.817017 25.59375,14.859375 C25.59375,13.901245 26.377197,13.124756 27.343628,13.124756 ZM39.65625,13.124756 C40.62268,13.124756 41.406128,13.901245 41.406128,14.859375 C41.406128,15.817017 40.62268,16.593628 39.65625,16.593628 C38.689697,16.593628 37.90625,15.817017 37.90625,14.859375 C37.90625,13.901245 38.689697,13.124756 39.65625,13.124756 ZM51.953003,13.124756 C52.928223,13.124756 53.71875,13.901245 53.71875,14.859375 C53.71875,15.817017 52.928223,16.593628 51.953003,16.593628 C50.977905,16.593628 50.1875,15.817017 50.1875,14.859375 C50.1875,13.901245 50.977905,13.124756 51.953003,13.124756 ZM64.25,13.124756 C65.21643,13.124756 66.0,13.901245 66.0,14.859375 C66.0,15.817017 65.21643,16.593628 64.25,16.593628 C63.283447,16.593628 62.499878,15.817017 62.499878,14.859375 C62.499878,13.901245 63.283447,13.124756 64.25,13.124756 ZM2.75,25.280884 C3.7164307,25.280884 4.5,26.050537 4.5,26.999756 C4.5,27.949097 3.7164307,28.71875 2.75,28.71875 C1.7834473,28.71875 1.0,27.949097 1.0,26.999756 C1.0,26.050537 1.7834473,25.280884 2.75,25.280884 ZM15.046875,25.280884 C16.021973,25.280884 16.8125,26.050537 16.8125,26.999756 C16.8125,27.949097 16.021973,28.71875 15.046875,28.71875 C14.071777,28.71875 13.281128,27.949097 13.281128,26.999756 C13.281128,26.050537 14.071777,25.280884 15.046875,25.280884 ZM27.343628,25.280884 C28.31018,25.280884 29.09375,26.050537 29.09375,26.999756 C29.09375,27.949097 28.31018,28.71875 27.343628,28.71875 C26.377197,28.71875 25.59375,27.949097 25.59375,26.999756 C25.59375,26.050537 26.377197,25.280884 27.343628,25.280884 ZM39.65625,25.280884 C40.62268,25.280884 41.406128,26.050537 41.406128,26.999756 C41.406128,27.949097 40.62268,28.71875 39.65625,28.71875 C38.689697,28.71875 37.90625,27.949097 37.90625,26.999756 C37.90625,26.050537 38.689697,25.280884 39.65625,25.280884 ZM51.953003,25.280884 C52.928223,25.280884 53.71875,26.050537 53.71875,26.999756 C53.71875,27.949097 52.928223,28.71875 51.953003,28.71875 C50.977905,28.71875 50.1875,27.949097 50.1875,26.999756 C50.1875,26.050537 50.977905,25.280884 51.953003,25.280884 ZM64.25,25.280884 C65.21643,25.280884 66.0,26.050537 66.0,26.999756 C66.0,27.949097 65.21643,28.71875 64.25,28.71875 C63.283447,28.71875 62.499878,27.949097 62.499878,26.999756 C62.499878,26.050537 63.283447,25.280884 64.25,25.280884 ZM2.75,37.406006 C3.7164307,37.406006 4.5,38.182495 4.5,39.14026 C4.5,40.09839 3.7164307,40.874878 2.75,40.874878 C1.7834473,40.874878 1.0,40.09839 1.0,39.14026 C1.0,38.182495 1.7834473,37.406006 2.75,37.406006 ZM15.046875,37.406006 C16.021973,37.406006 16.8125,38.182495 16.8125,39.14026 C16.8125,40.09839 16.021973,40.874878 15.046875,40.874878 C14.071777,40.874878 13.281128,40.09839 13.281128,39.14026 C13.281128,38.182495 14.071777,37.406006 15.046875,37.406006 ZM27.343628,37.406006 C28.31018,37.406006 29.09375,38.182495 29.09375,39.14026 C29.09375,40.09839 28.31018,40.874878 27.343628,40.874878 C26.377197,40.874878 25.59375,40.09839 25.59375,39.14026 C25.59375,38.182495 26.377197,37.406006 27.343628,37.406006 ZM39.65625,37.406006 C40.62268,37.406006 41.406128,38.182495 41.406128,39.14026 C41.406128,40.09839 40.62268,40.874878 39.65625,40.874878 C38.689697,40.874878 37.90625,40.09839 37.90625,39.14026 C37.90625,38.182495 38.689697,37.406006 39.65625,37.406006 ZM51.953003,37.406006 C52.928223,37.406006 53.71875,38.182495 53.71875,39.14026 C53.71875,40.09839 52.928223,40.874878 51.953003,40.874878 C50.977905,40.874878 50.1875,40.09839 50.1875,39.14026 C50.1875,38.182495 50.977905,37.406006 51.953003,37.406006 ZM64.25,37.406006 C65.21643,37.406006 66.0,38.182495 66.0,39.14026 C66.0,40.09839 65.21643,40.874878 64.25,40.874878 C63.283447,40.874878 62.499878,40.09839 62.499878,39.14026 C62.499878,38.182495 63.283447,37.406006 64.25,37.406006 ZM2.75,49.531128 C3.7164307,49.531128 4.5,50.307617 4.5,51.26538 C4.5,52.223145 3.7164307,52.999634 2.75,52.999634 C1.7834473,52.999634 1.0,52.223145 1.0,51.26538 C1.0,50.307617 1.7834473,49.531128 2.75,49.531128 ZM15.046875,49.531128 C16.021973,49.531128 16.8125,50.307617 16.8125,51.26538 C16.8125,52.223145 16.021973,52.999634 15.046875,52.999634 C14.071777,52.999634 13.281128,52.223145 13.281128,51.26538 C13.281128,50.307617 14.071777,49.531128 15.046875,49.531128 ZM27.343628,49.531128 C28.31018,49.531128 29.09375,50.307617 29.09375,51.26538 C29.09375,52.223145 28.31018,52.999634 27.343628,52.999634 C26.377197,52.999634 25.59375,52.223145 25.59375,51.26538 C25.59375,50.307617 26.377197,49.531128 27.343628,49.531128 ZM39.65625,49.531128 C40.62268,49.531128 41.406128,50.307617 41.406128,51.26538 C41.406128,52.223145 40.62268,52.999634 39.65625,52.999634 C38.689697,52.999634 37.90625,52.223145 37.90625,51.26538 C37.90625,50.307617 38.689697,49.531128 39.65625,49.531128 ZM51.953003,49.531128 C52.928223,49.531128 53.71875,50.307617 53.71875,51.26538 C53.71875,52.223145 52.928223,52.999634 51.953003,52.999634 C50.977905,52.999634 50.1875,52.223145 50.1875,51.26538 C50.1875,50.307617 50.977905,49.531128 51.953003,49.531128 ZM64.25,49.531128 C65.21643,49.531128 66.0,50.307617 66.0,51.26538 C66.0,52.223145 65.21643,52.999634 64.25,52.999634 C63.283447,52.999634 62.499878,52.223145 62.499878,51.26538 C62.499878,50.307617 63.283447,49.531128 64.25,49.531128 Z"/>
</svg>