<svg xmlns="http://www.w3.org/2000/svg"
 xmlns:xlink="http://www.w3.org/1999/xlink"
 width="9px" height="13px"  viewBox="0 0 9 13">
<path fill-rule="evenodd"  fill="#8d8d8d"
 d="M7.0047607,6.178955 C7.0047607,5.999756 6.944702,5.820801 6.8254395,5.6848145 C6.8254395,5.6848145 3.0601807,1.3876953 3.0601807,1.3876953 C2.8200684,1.1137695 2.4316406,1.1137695 2.1923828,1.3876953 C1.9530029,1.6608887 1.9530029,2.104004 2.1923828,2.3771973 C2.1923828,2.3771973 5.524048,6.178955 5.524048,6.178955 C5.524048,6.178955 2.1929932,9.980957 2.1929932,9.980957 C1.9534912,10.25415 1.9534912,10.697266 2.1929932,10.970947 C2.432373,11.243652 2.8208008,11.243652 3.0601807,10.970947 C3.0601807,10.970947 6.8254395,6.673584 6.8254395,6.673584 C6.9451904,6.5375977 7.0047607,6.357666 7.0047607,6.178955 C7.0047607,6.178955 7.0047607,6.178955 7.0047607,6.178955 ZM7.0047607,6.178955 C7.0047607,6.178955 "/>
</svg>