<svg xmlns="http://www.w3.org/2000/svg"
 xmlns:xlink="http://www.w3.org/1999/xlink"
 width="19px" height="19px"  viewBox="0 0 19 19">
<path fill-rule="evenodd"  fill="#fe3e57"
 d="M16.124878,3.2493896 C16.124878,3.2493896 15.375,3.2493896 15.375,3.2493896 C15.375,3.2493896 15.375,1.9991455 15.375,1.9991455 C15.375,1.9991455 14.124878,1.9991455 14.124878,1.9991455 C14.124878,1.9991455 14.124878,3.2493896 14.124878,3.2493896 C14.124878,3.2493896 5.875,3.2493896 5.875,3.2493896 C5.875,3.2493896 5.875,1.9991455 5.875,1.9991455 C5.875,1.9991455 4.625,1.9991455 4.625,1.9991455 C4.625,1.9991455 4.625,3.2493896 4.625,3.2493896 C4.625,3.2493896 3.874878,3.2493896 3.874878,3.2493896 C2.8410645,3.2493896 1.9998779,4.090454 1.9998779,5.1242676 C1.9998779,5.1242676 1.9998779,16.124268 1.9998779,16.124268 C1.9998779,17.158081 2.8410645,17.999023 3.874878,17.999023 C3.874878,17.999023 16.124878,17.999023 16.124878,17.999023 C17.158813,17.999023 17.999878,17.158081 17.999878,16.124268 C17.999878,16.124268 17.999878,5.1242676 17.999878,5.1242676 C17.999878,4.090454 17.158813,3.2493896 16.124878,3.2493896 ZM3.874878,4.4992676 C3.874878,4.4992676 4.625,4.4992676 4.625,4.4992676 C4.625,4.4992676 4.625,5.7490234 4.625,5.7490234 C4.625,5.7490234 5.875,5.7490234 5.875,5.7490234 C5.875,5.7490234 5.875,4.4992676 5.875,4.4992676 C5.875,4.4992676 14.124878,4.4992676 14.124878,4.4992676 C14.124878,4.4992676 14.124878,5.7490234 14.124878,5.7490234 C14.124878,5.7490234 15.375,5.7490234 15.375,5.7490234 C15.375,5.7490234 15.375,4.4992676 15.375,4.4992676 C15.375,4.4992676 16.124878,4.4992676 16.124878,4.4992676 C16.469604,4.4992676 16.75,4.779663 16.75,5.1242676 C16.75,5.1242676 16.75,6.6243896 16.75,6.6243896 C16.75,6.6243896 3.25,6.6243896 3.25,6.6243896 C3.25,6.6243896 3.25,5.1242676 3.25,5.1242676 C3.25,4.779663 3.5302734,4.4992676 3.874878,4.4992676 ZM16.124878,16.749268 C16.124878,16.749268 3.874878,16.749268 3.874878,16.749268 C3.5302734,16.749268 3.25,16.468872 3.25,16.124268 C3.25,16.124268 3.25,7.8741455 3.25,7.8741455 C3.25,7.8741455 16.75,7.8741455 16.75,7.8741455 C16.75,7.8741455 16.75,16.124268 16.75,16.124268 C16.75,16.468872 16.469604,16.749268 16.124878,16.749268 ZM4.374878,9.186768 C4.374878,9.186768 5.625,9.186768 5.625,9.186768 C5.625,9.186768 5.625,10.43689 5.625,10.43689 C5.625,10.43689 4.374878,10.43689 4.374878,10.43689 C4.374878,10.43689 4.374878,9.186768 4.374878,9.186768 ZM6.875,9.186768 C6.875,9.186768 8.124878,9.186768 8.124878,9.186768 C8.124878,9.186768 8.124878,10.43689 8.124878,10.43689 C8.124878,10.43689 6.875,10.43689 6.875,10.43689 C6.875,10.43689 6.875,9.186768 6.875,9.186768 ZM9.375,9.186768 C9.375,9.186768 10.625,9.186768 10.625,9.186768 C10.625,9.186768 10.625,10.43689 10.625,10.43689 C10.625,10.43689 9.375,10.43689 9.375,10.43689 C9.375,10.43689 9.375,9.186768 9.375,9.186768 ZM11.874878,9.186768 C11.874878,9.186768 13.125,9.186768 13.125,9.186768 C13.125,9.186768 13.125,10.43689 13.125,10.43689 C13.125,10.43689 11.874878,10.43689 11.874878,10.43689 C11.874878,10.43689 11.874878,9.186768 11.874878,9.186768 ZM14.375,9.186768 C14.375,9.186768 15.624878,9.186768 15.624878,9.186768 C15.624878,9.186768 15.624878,10.43689 15.624878,10.43689 C15.624878,10.43689 14.375,10.43689 14.375,10.43689 C14.375,10.43689 14.375,9.186768 14.375,9.186768 ZM4.374878,11.68689 C4.374878,11.68689 5.625,11.68689 5.625,11.68689 C5.625,11.68689 5.625,12.936523 5.625,12.936523 C5.625,12.936523 4.374878,12.936523 4.374878,12.936523 C4.374878,12.936523 4.374878,11.68689 4.374878,11.68689 ZM6.875,11.68689 C6.875,11.68689 8.124878,11.68689 8.124878,11.68689 C8.124878,11.68689 8.124878,12.936523 8.124878,12.936523 C8.124878,12.936523 6.875,12.936523 6.875,12.936523 C6.875,12.936523 6.875,11.68689 6.875,11.68689 ZM9.375,11.68689 C9.375,11.68689 10.625,11.68689 10.625,11.68689 C10.625,11.68689 10.625,12.936523 10.625,12.936523 C10.625,12.936523 9.375,12.936523 9.375,12.936523 C9.375,12.936523 9.375,11.68689 9.375,11.68689 ZM11.874878,11.68689 C11.874878,11.68689 13.125,11.68689 13.125,11.68689 C13.125,11.68689 13.125,12.936523 13.125,12.936523 C13.125,12.936523 11.874878,12.936523 11.874878,12.936523 C11.874878,12.936523 11.874878,11.68689 11.874878,11.68689 ZM4.374878,14.187012 C4.374878,14.187012 5.625,14.187012 5.625,14.187012 C5.625,14.187012 5.625,15.43689 5.625,15.43689 C5.625,15.43689 4.374878,15.43689 4.374878,15.43689 C4.374878,15.43689 4.374878,14.187012 4.374878,14.187012 ZM6.875,14.187012 C6.875,14.187012 8.124878,14.187012 8.124878,14.187012 C8.124878,14.187012 8.124878,15.43689 8.124878,15.43689 C8.124878,15.43689 6.875,15.43689 6.875,15.43689 C6.875,15.43689 6.875,14.187012 6.875,14.187012 ZM9.375,14.187012 C9.375,14.187012 10.625,14.187012 10.625,14.187012 C10.625,14.187012 10.625,15.43689 10.625,15.43689 C10.625,15.43689 9.375,15.43689 9.375,15.43689 C9.375,15.43689 9.375,14.187012 9.375,14.187012 ZM11.874878,14.187012 C11.874878,14.187012 13.125,14.187012 13.125,14.187012 C13.125,14.187012 13.125,15.43689 13.125,15.43689 C13.125,15.43689 11.874878,15.43689 11.874878,15.43689 C11.874878,15.43689 11.874878,14.187012 11.874878,14.187012 ZM14.375,11.68689 C14.375,11.68689 15.624878,11.68689 15.624878,11.68689 C15.624878,11.68689 15.624878,12.936523 15.624878,12.936523 C15.624878,12.936523 14.375,12.936523 14.375,12.936523 C14.375,12.936523 14.375,11.68689 14.375,11.68689 Z"/>
</svg>