<svg xmlns="http://www.w3.org/2000/svg"
 xmlns:xlink="http://www.w3.org/1999/xlink"
 width="19px" height="19px"  viewBox="0 0 19 19">
<path fill-rule="evenodd"  fill="#fe3e57"
 d="M17.374939,1.9997559 C17.374939,1.9997559 2.625,1.9997559 2.625,1.9997559 C2.2797241,1.9997559 1.9998779,2.279663 1.9998779,2.6246338 C1.9998779,2.6246338 1.9998779,14.999512 1.9998779,14.999512 C1.9998779,15.344727 2.2797241,15.624512 2.625,15.624512 C2.625,15.624512 8.155457,15.624512 8.155457,15.624512 C8.155457,15.624512 9.471497,17.708496 9.471497,17.708496 C9.5859375,17.889648 9.785522,17.999512 9.999878,17.999512 C10.214355,17.999512 10.413818,17.889648 10.528381,17.708496 C10.528381,17.708496 11.844421,15.624512 11.844421,15.624512 C11.844421,15.624512 17.374939,15.624512 17.374939,15.624512 C17.720093,15.624512 17.999878,15.344727 17.999878,14.999512 C17.999878,14.999512 17.999878,2.6246338 17.999878,2.6246338 C17.999878,2.279663 17.720093,1.9997559 17.374939,1.9997559 ZM16.749939,14.374756 C16.749939,14.374756 11.5,14.374756 11.5,14.374756 C11.285522,14.374756 11.08606,14.484741 10.971497,14.665894 C10.971497,14.665894 9.999878,16.204346 9.999878,16.204346 C9.999878,16.204346 9.028381,14.665894 9.028381,14.665894 C8.913818,14.484741 8.714355,14.374756 8.499878,14.374756 C8.499878,14.374756 3.249939,14.374756 3.249939,14.374756 C3.249939,14.374756 3.249939,3.2496338 3.249939,3.2496338 C3.249939,3.2496338 16.749939,3.2496338 16.749939,3.2496338 C16.749939,3.2496338 16.749939,14.374756 16.749939,14.374756 ZM9.218689,8.812256 C9.218689,8.380615 9.56842,8.030884 9.999878,8.030884 C10.431335,8.030884 10.781189,8.380615 10.781189,8.812256 C10.781189,9.243774 10.431335,9.593506 9.999878,9.593506 C9.56842,9.593506 9.218689,9.243774 9.218689,8.812256 ZM6.093689,8.812256 C6.093689,8.380615 6.4434204,8.030884 6.874939,8.030884 C7.3063965,8.030884 7.656128,8.380615 7.656128,8.812256 C7.656128,9.243774 7.3063965,9.593506 6.874939,9.593506 C6.4434204,9.593506 6.093689,9.243774 6.093689,8.812256 ZM12.343628,8.812256 C12.343628,8.380615 12.693481,8.030884 13.124939,8.030884 C13.5563965,8.030884 13.906189,8.380615 13.906189,8.812256 C13.906189,9.243774 13.5563965,9.593506 13.124939,9.593506 C12.693481,9.593506 12.343628,9.243774 12.343628,8.812256 Z"/>
</svg>