<svg xmlns="http://www.w3.org/2000/svg" width="48.09" height="28.85" viewBox="0 0 48.09 28.85">
	<style type="text/css">
		.st2{fill:#ff8500;}
		.st1{fill:#f7981d;}
		.st4{fill:#e52836;}
		.st3{fill:#ff5050;}
		.st6{fill:#ffffff;}
		.st5{fill:#cb2026;}
		.st7{fill:#dce5e5;}
		.st0{fill:#ffb600;}
	</style>
	<path class="st0" d="M48.09,14.42C48.09,22.36 41.68,28.85 33.66,28.85C25.72,28.85 19.23,22.36 19.23,14.42C19.23,6.48 25.65,0 33.59,0C41.68,0 48.09,6.48 48.09,14.42"/>
	<path class="st1" d="M33.66,0C41.6,0 48.09,6.48 48.09,14.42C48.09,22.36 41.68,28.85 33.66,28.85C25.72,28.85 19.23,22.36 19.23,14.42"/>
	<path class="st2" d="M33.66,0C41.6,0 48.09,6.48 48.09,14.42C48.09,22.36 41.68,28.85 33.66,28.85"/>
	<path class="st3" d="M14.27,0C6.41,0.07 0,6.48 0,14.42C0,22.36 6.41,28.85 14.42,28.85C18.16,28.85 21.52,27.4 24.12,25.11C24.65,24.65 25.11,24.12 25.57,23.58L22.59,23.58C22.21,23.13 21.83,22.59 21.52,22.13L26.64,22.13C26.94,21.68 27.25,21.14 27.48,20.61L20.68,20.61C20.46,20.15 20.23,19.61 20.07,19.08L28.01,19.08C28.47,17.63 28.78,16.1 28.78,14.5C28.78,13.43 28.62,12.44 28.47,11.45L19.62,11.45C19.69,10.91 19.84,10.45 20,9.92L27.94,9.92C27.78,9.38 27.55,8.85 27.33,8.39L20.61,8.39C20.84,7.86 21.14,7.4 21.45,6.87L26.56,6.87C26.26,6.33 25.88,5.8 25.42,5.34L22.59,5.34C23.05,4.8 23.51,4.35 24.04,3.89C21.52,1.52 18.09,0.15 14.35,0.15C14.35,0 14.35,0 14.27,0"/>
	<path class="st4" d="M0,14.42C0,22.36 6.41,28.85 14.42,28.85C18.16,28.85 21.52,27.4 24.12,25.11C24.65,24.65 25.11,24.12 25.57,23.58L22.59,23.58C22.21,23.13 21.83,22.59 21.52,22.13L26.64,22.13C26.94,21.68 27.25,21.14 27.48,20.61L20.68,20.61C20.45,20.15 20.23,19.61 20.07,19.08L28.01,19.08C28.47,17.63 28.78,16.1 28.78,14.5C28.78,13.43 28.62,12.44 28.47,11.45L19.62,11.45C19.69,10.91 19.84,10.45 20,9.92L27.94,9.92C27.78,9.38 27.55,8.85 27.33,8.39L20.61,8.39C20.84,7.86 21.14,7.4 21.45,6.87L26.56,6.87C26.26,6.33 25.87,5.8 25.42,5.34L22.59,5.34C23.05,4.8 23.51,4.35 24.04,3.89C21.52,1.52 18.09,0.15 14.35,0.15L14.27,0.15"/>
	<path class="st5" d="M14.42,28.85C18.16,28.85 21.52,27.4 24.12,25.11C24.65,24.65 25.11,24.12 25.57,23.58L22.59,23.58C22.21,23.13 21.83,22.59 21.52,22.13L26.64,22.13C26.94,21.68 27.25,21.14 27.48,20.61L20.68,20.61C20.45,20.15 20.23,19.62 20.07,19.08L28.01,19.08C28.47,17.63 28.78,16.1 28.78,14.5C28.78,13.43 28.62,12.44 28.47,11.45L19.61,11.45C19.69,10.91 19.84,10.45 20,9.92L27.94,9.92C27.78,9.39 27.55,8.85 27.32,8.39L20.61,8.39C20.84,7.86 21.14,7.4 21.45,6.87L26.56,6.87C26.26,6.33 25.87,5.8 25.42,5.34L22.59,5.34C23.05,4.8 23.51,4.35 24.04,3.89C21.52,1.52 18.09,0.15 14.35,0.15L14.27,0.15"/>
	<path class="st6" d="M19.54,18.09L19.77,16.79C19.69,16.79 19.54,16.87 19.39,16.87C18.85,16.87 18.78,16.56 18.85,16.41L19.31,13.74L20.15,13.74L20.38,12.29L19.62,12.29L19.77,11.37L18.24,11.37C18.24,11.37 17.32,16.41 17.32,17.02C17.32,17.94 17.86,18.32 18.55,18.32C19,18.32 19.39,18.16 19.54,18.09"/>
	<path class="st6" d="M22.74,13.43C23.58,13.43 23.43,14.42 23.43,14.5L21.75,14.5C21.75,14.42 21.9,13.43 22.74,13.43M20.07,15.64C20.07,17.78 21.52,18.32 22.74,18.32C23.89,18.32 24.35,18.09 24.35,18.09L24.65,16.64C24.65,16.64 23.81,17.02 23.05,17.02C21.37,17.02 21.68,15.8 21.68,15.8L24.81,15.8C24.81,15.8 25.04,14.81 25.04,14.42C25.04,13.43 24.5,12.21 22.82,12.21C21.22,12.06 20.07,13.74 20.07,15.64"/>
	<path class="st6" d="M32.44,18.09L32.75,16.41C32.75,16.41 31.98,16.79 31.45,16.79C30.38,16.79 29.92,15.95 29.92,15.03C29.92,13.2 30.84,12.21 31.91,12.21C32.67,12.21 33.28,12.67 33.28,12.67L33.51,11.06C33.51,11.06 32.59,10.68 31.75,10.68C30,10.68 28.24,12.21 28.24,15.11C28.24,17.02 29.16,18.32 30.99,18.32C31.6,18.32 32.44,18.09 32.44,18.09"/>
	<path class="st6" d="M11.45,15.49C11.45,15.72 11.29,16.94 10.38,16.94C9.92,16.94 9.77,16.56 9.77,16.33C9.77,15.95 10,15.42 11.14,15.42C11.37,15.49 11.45,15.49 11.45,15.49M11.14,12.06C10.07,12.06 9.31,12.36 9.31,12.36L9.08,13.66C9.08,13.66 9.77,13.35 10.76,13.35C11.29,13.35 11.75,13.43 11.75,13.89C11.75,14.19 11.68,14.27 11.68,14.27L10.99,14.27C9.69,14.27 8.24,14.8 8.24,16.56C8.24,17.93 9.16,18.24 9.69,18.24C10.76,18.24 11.22,17.55 11.29,17.55L11.22,18.16L12.59,18.16L13.2,13.97C13.2,12.13 11.68,12.06 11.14,12.06"/>
	<path class="st6" d="M14.65,18.24C15.03,18.24 16.94,18.32 16.94,16.26C16.94,14.35 15.11,14.73 15.11,13.97C15.11,13.58 15.42,13.43 15.95,13.43C16.18,13.43 17.02,13.51 17.02,13.51L17.25,12.13C17.25,12.13 16.71,11.98 15.8,11.98C14.65,11.98 13.51,12.44 13.51,13.97C13.51,15.72 15.42,15.57 15.42,16.26C15.42,16.71 14.88,16.79 14.5,16.79C13.81,16.79 13.13,16.56 13.13,16.56L12.9,17.93C12.97,18.09 13.35,18.24 14.65,18.24"/>
	<path class="st6" d="M44.43,14.88C44.43,15.72 44.04,16.79 43.2,16.79C42.67,16.79 42.36,16.33 42.36,15.57C42.36,14.35 42.9,13.58 43.59,13.58C44.12,13.58 44.43,13.97 44.43,14.88M45.11,10.84L44.81,12.9C44.81,12.9 44.2,12.13 43.36,12.13C41.98,12.13 40.76,13.81 40.76,15.8C40.76,17.02 41.37,18.32 42.67,18.32C43.59,18.32 44.12,17.71 44.12,17.71L44.04,18.24L45.57,18.24L46.72,10.91Z"/>
	<path class="st6" d="M2.82,18.16L3.74,12.67L3.89,18.16L4.96,18.16L6.94,12.67L6.1,18.16L7.71,18.16L8.93,10.84L6.41,10.84L4.88,15.34L4.8,10.84L2.59,10.84L1.37,18.16Z"/>
	<path class="st6" d="M26.49,18.16C26.94,15.64 27.02,13.58 28.09,13.97C28.24,12.97 28.47,12.59 28.62,12.21L28.32,12.21C27.63,12.21 27.1,13.13 27.1,13.13L27.25,12.29L25.8,12.29L24.81,18.24L26.49,18.24Z"/>
	<path class="st6" d="M36.33,15.49C36.33,15.72 36.18,16.94 35.27,16.94C34.81,16.94 34.65,16.56 34.65,16.33C34.65,15.95 34.88,15.42 36.03,15.42C36.26,15.49 36.26,15.49 36.33,15.49M35.95,12.06C34.88,12.06 34.12,12.36 34.12,12.36L33.89,13.66C33.89,13.66 34.58,13.35 35.57,13.35C36.1,13.35 36.56,13.43 36.56,13.89C36.56,14.19 36.49,14.27 36.49,14.27L35.8,14.27C34.5,14.27 33.05,14.8 33.05,16.56C33.05,17.93 33.97,18.24 34.5,18.24C35.57,18.24 36.03,17.55 36.1,17.55L36.03,18.16L37.4,18.16L38.01,13.97C38.09,12.13 36.49,12.06 35.95,12.06"/>
	<path class="st6" d="M39.31,18.16C39.77,15.64 39.85,13.58 40.91,13.97C41.07,12.97 41.3,12.59 41.45,12.21L41.14,12.21C40.46,12.21 39.92,13.13 39.92,13.13L40.07,12.29L38.62,12.29L37.63,18.24L39.31,18.24Z"/>
	<path class="st7" d="M17.17,17.02C17.17,17.94 17.71,18.32 18.39,18.32C18.93,18.32 19.39,18.17 19.54,18.09L19.77,16.79C19.69,16.79 19.54,16.87 19.39,16.87C18.85,16.87 18.78,16.56 18.85,16.41L19.31,13.74L20.15,13.74L20.38,12.29L19.62,12.29L19.77,11.37"/>
	<path class="st7" d="M22.74,13.43C23.58,13.43 23.74,14.42 23.74,14.5L21.75,14.5C21.75,14.42 21.9,13.43 22.74,13.43M20.84,15.64C20.84,17.78 21.52,18.32 22.74,18.32C23.89,18.32 24.35,18.09 24.35,18.09L24.65,16.64C24.65,16.64 23.81,17.02 23.05,17.02C21.37,17.02 21.68,15.8 21.68,15.8L24.81,15.8C24.81,15.8 25.04,14.81 25.04,14.42C25.04,13.43 24.5,12.21 22.82,12.21C21.22,12.06 20.84,13.74 20.84,15.64"/>
	<path class="st7" d="M32.44,18.09L32.75,16.41C32.75,16.41 31.98,16.79 31.45,16.79C30.38,16.79 29.92,15.95 29.92,15.03C29.92,13.2 30.84,12.21 31.91,12.21C32.67,12.21 33.28,12.67 33.28,12.67L33.51,11.06C33.51,11.06 32.59,10.68 31.75,10.68C30,10.68 29,12.21 29,15.11C29,17.02 29.16,18.32 30.99,18.32C31.6,18.32 32.44,18.09 32.44,18.09"/>
	<path class="st7" d="M12.21,15.49C12.21,15.72 11.29,16.94 10.38,16.94C9.92,16.94 9.77,16.56 9.77,16.33C9.77,15.95 10,15.42 11.14,15.42C11.37,15.49 12.21,15.49 12.21,15.49M9.08,13.74C9.08,13.74 9.77,13.43 10.76,13.43C11.29,13.43 11.75,13.51 11.75,13.97C11.75,14.27 11.68,14.35 11.68,14.35L10.99,14.35C9.69,14.35 8.24,14.88 8.24,16.64C8.24,18.01 9.16,18.32 9.69,18.32C10.76,18.32 11.22,17.63 11.29,17.63L11.22,18.24L12.59,18.24L13.2,14.04C13.2,12.29 11.68,12.21 11.06,12.21"/>
	<path class="st7" d="M12.97,18.09C12.97,18.09 13.43,18.24 14.73,18.24C15.11,18.24 17.02,18.32 17.02,16.26C17.02,14.35 15.19,14.73 15.19,13.97C15.19,13.58 15.49,13.43 16.03,13.43C16.26,13.43 17.1,13.51 17.1,13.51L17.32,12.13C17.32,12.13 16.79,11.98 15.87,11.98C14.73,11.98 14.35,12.44 14.35,13.97C14.35,15.72 15.49,15.57 15.49,16.26C15.49,16.71 14.96,16.79 14.58,16.79"/>
	<path class="st7" d="M44.73,14.88C44.73,15.72 44.04,16.79 43.21,16.79C42.67,16.79 42.37,16.33 42.37,15.57C42.37,14.35 42.9,13.58 43.59,13.58C44.12,13.58 44.73,13.97 44.73,14.88M44.81,12.9C44.81,12.9 44.2,12.13 43.36,12.13C41.98,12.13 41.53,13.81 41.53,15.8C41.53,17.02 41.37,18.32 42.67,18.32C43.59,18.32 44.12,17.71 44.12,17.71L44.04,18.24L45.57,18.24L46.72,10.91"/>
	<path class="st7" d="M2.82,18.16L3.74,12.67L3.89,18.16L4.96,18.16L6.94,12.67L6.1,18.16L7.71,18.16L8.93,10.84L7.02,10.84L4.88,15.34L4.8,10.84L3.97,10.84L1.37,18.16Z"/>
	<path class="st7" d="M24.88,18.16L26.49,18.16C26.94,15.64 27.02,13.58 28.09,13.97C28.24,12.97 28.47,12.59 28.62,12.21L28.32,12.21C27.63,12.21 27.1,13.13 27.1,13.13L27.25,12.29"/>
	<path class="st7" d="M37.02,15.49C37.02,15.72 36.1,16.94 35.19,16.94C34.73,16.94 34.58,16.56 34.58,16.33C34.58,15.95 34.81,15.42 35.95,15.42C36.26,15.49 37.02,15.49 37.02,15.49M33.89,13.74C33.89,13.74 34.58,13.43 35.57,13.43C36.1,13.43 36.56,13.51 36.56,13.97C36.56,14.27 36.49,14.35 36.49,14.35L35.8,14.35C34.5,14.35 33.05,14.88 33.05,16.64C33.05,18.01 33.97,18.32 34.5,18.32C35.57,18.32 36.03,17.63 36.1,17.63L36.03,18.24L37.4,18.24L38.01,14.04C38.01,12.29 36.49,12.21 35.88,12.21"/>
	<path class="st7" d="M37.71,18.16L39.31,18.16C39.77,15.64 39.85,13.58 40.91,13.97C41.07,12.97 41.3,12.59 41.45,12.21L41.14,12.21C40.46,12.21 39.92,13.13 39.92,13.13L40.07,12.29"/>
</svg>