<svg xmlns="http://www.w3.org/2000/svg" width="56.34" height="14.39" viewBox="0 0 56.34 14.39">
	<style type="text/css">
		.st2{fill:#232c65;}
		.st1{fill:#263b80;}
		.st0{fill:#139ad6;}
	</style>
	<path class="st0" d="M43.91,6.7C43.73,7.78 42.93,7.78 42.12,7.78L41.59,7.78L41.94,5.72C41.94,5.63 42.03,5.54 42.21,5.54L42.39,5.54C42.93,5.54 43.46,5.54 43.73,5.9C43.91,5.99 43.91,6.26 43.91,6.7M43.55,3.75L40.51,3.75C40.33,3.75 40.15,3.93 40.06,4.11L38.81,11.98C38.81,12.16 38.9,12.25 39.08,12.25L40.69,12.25C40.87,12.25 40.96,12.16 40.96,11.98L41.32,9.74C41.32,9.57 41.5,9.39 41.76,9.39L42.75,9.39C44.81,9.39 45.97,8.4 46.24,6.43C46.42,5.63 46.24,4.91 45.88,4.47C45.34,4.02 44.54,3.75 43.55,3.75"/>
	<path class="st1" d="M22,6.7C21.82,7.78 21.01,7.78 20.21,7.78L19.76,7.78L20.12,5.72C20.12,5.63 20.21,5.54 20.39,5.54L20.57,5.54C21.1,5.54 21.64,5.54 21.91,5.9C22,5.99 22.09,6.26 22,6.7M21.64,3.75L18.6,3.75C18.42,3.75 18.24,3.93 18.15,4.11L16.9,11.98C16.9,12.16 16.99,12.25 17.17,12.25L18.6,12.25C18.78,12.25 18.96,12.07 19.05,11.89L19.4,9.74C19.4,9.57 19.58,9.39 19.85,9.39L20.83,9.39C22.89,9.39 24.05,8.4 24.32,6.43C24.5,5.63 24.32,4.91 23.97,4.47C23.43,4.02 22.71,3.75 21.64,3.75"/>
	<path class="st1" d="M28.79,9.48C28.62,10.28 27.99,10.91 27.1,10.91C26.65,10.91 26.29,10.73 26.11,10.55C25.93,10.28 25.84,9.92 25.84,9.48C25.93,8.67 26.65,8.04 27.45,8.04C27.9,8.04 28.17,8.22 28.44,8.4C28.71,8.67 28.79,9.12 28.79,9.48M30.85,6.61L29.42,6.61C29.33,6.61 29.15,6.7 29.15,6.79L29.06,7.24L28.97,7.06C28.62,6.61 27.99,6.43 27.27,6.43C25.66,6.43 24.23,7.69 23.96,9.39C23.79,10.28 24.05,11.09 24.5,11.62C24.95,12.16 25.57,12.34 26.38,12.34C27.72,12.34 28.44,11.53 28.44,11.53L28.35,11.98C28.35,12.16 28.44,12.25 28.62,12.25L29.96,12.25C30.14,12.25 30.32,12.07 30.4,11.89L31.21,6.88C31.12,6.79 30.94,6.61 30.85,6.61"/>
	<path class="st0" d="M50.62,9.48C50.44,10.28 49.81,10.91 48.92,10.91C48.47,10.91 48.11,10.73 47.94,10.55C47.76,10.28 47.67,9.92 47.67,9.48C47.76,8.67 48.47,8.04 49.28,8.04C49.72,8.04 49.99,8.22 50.26,8.4C50.62,8.67 50.71,9.12 50.62,9.48M52.68,6.61L51.25,6.61C51.16,6.61 50.98,6.7 50.98,6.79L50.89,7.24L50.8,7.06C50.44,6.61 49.81,6.43 49.1,6.43C47.49,6.43 46.06,7.69 45.79,9.39C45.61,10.28 45.88,11.09 46.33,11.62C46.77,12.16 47.4,12.34 48.2,12.34C49.55,12.34 50.26,11.53 50.26,11.53L50.17,11.98C50.17,12.16 50.26,12.25 50.44,12.25L51.78,12.25C51.96,12.25 52.14,12.07 52.23,11.89L53.03,6.88C52.94,6.79 52.85,6.61 52.68,6.61"/>
	<path class="st1" d="M38.63,6.61L37.11,6.61C36.93,6.61 36.84,6.7 36.75,6.79L34.79,9.83L33.89,6.97C33.8,6.79 33.71,6.7 33.45,6.7L32.01,6.7C31.84,6.7 31.75,6.88 31.75,7.06L33.36,11.8L31.84,13.95C31.75,14.13 31.84,14.4 32.01,14.4L33.45,14.4C33.62,14.4 33.71,14.31 33.8,14.22L38.72,7.15C38.99,6.88 38.81,6.61 38.63,6.61"/>
	<path class="st0" d="M54.37,4.02L53.12,12.07C53.12,12.25 53.21,12.34 53.39,12.34L54.64,12.34C54.82,12.34 55,12.16 55.09,11.98L56.34,4.11C56.34,3.93 56.25,3.84 56.07,3.84L54.64,3.84C54.55,3.75 54.46,3.84 54.37,4.02"/>
	<path class="st1" d="M10.28,1.07C9.65,0.35 8.49,0 6.88,0L2.41,0C2.14,0 1.87,0.26 1.78,0.53L0,12.25C0,12.52 0.17,12.7 0.35,12.7L3.13,12.7L3.84,8.31L3.84,8.49C3.93,8.22 4.2,7.96 4.47,7.96L5.81,7.96C8.4,7.96 10.37,6.88 11,3.93L11,3.66C10.91,3.66 10.91,3.66 11,3.66C11.09,2.5 10.91,1.78 10.28,1.07"/>
	<path class="st0" d="M10.91,3.66L10.91,3.66L10.91,3.93C10.28,6.97 8.31,7.96 5.72,7.96L4.38,7.96C4.11,7.96 3.84,8.22 3.75,8.49L2.86,13.95C2.86,14.13 2.95,14.31 3.21,14.31L5.54,14.31C5.81,14.31 6.08,14.13 6.08,13.86L6.08,13.77L6.52,11L6.52,10.82C6.52,10.55 6.79,10.37 7.06,10.37L7.42,10.37C9.65,10.37 11.44,9.48 11.89,6.79C12.07,5.72 11.98,4.74 11.44,4.11C11.35,3.93 11.18,3.75 10.91,3.66"/>
	<path class="st2" d="M10.28,3.39C10.19,3.39 10.1,3.3 10.01,3.3C9.92,3.3 9.83,3.3 9.74,3.21C9.39,3.13 9.03,3.13 8.58,3.13L5.09,3.13C5,3.13 4.91,3.13 4.82,3.21C4.65,3.3 4.56,3.48 4.56,3.66L3.84,8.31L3.84,8.49C3.93,8.22 4.2,7.96 4.47,7.96L5.81,7.96C8.4,7.96 10.37,6.88 11,3.93C11,3.84 11,3.75 11.09,3.66C10.91,3.57 10.82,3.48 10.64,3.48C10.37,3.39 10.37,3.39 10.28,3.39"/>
</svg>