<?xml version="1.0" encoding="UTF-8"?>
<svg xmlns="http://www.w3.org/2000/svg" width="15px" height="16px" viewBox="0 0 15 16" version="1.1">
<g id="surface1">
<path style=" stroke:none;fill-rule:nonzero;fill:rgb(0%,0%,0%);fill-opacity:1;" d="M 7.96875 0.203125 C 3.960938 0.203125 0 2.339844 0 5.800781 C 0 8 1.546875 9.25 2.484375 9.25 C 2.871094 9.25 3.09375 8.386719 3.09375 8.144531 C 3.09375 7.851562 2.167969 7.234375 2.167969 6.023438 C 2.167969 3.511719 4.558594 1.730469 7.652344 1.730469 C 10.3125 1.730469 12.28125 2.941406 12.28125 5.164062 C 12.28125 6.820312 11.449219 9.933594 8.753906 9.933594 C 7.78125 9.933594 6.949219 9.371094 6.949219 8.566406 C 6.949219 7.382812 7.980469 6.242188 7.980469 5.023438 C 7.980469 2.953125 4.3125 3.328125 4.3125 5.828125 C 4.3125 6.351562 4.394531 6.933594 4.6875 7.414062 C 4.148438 9.269531 3.046875 12.035156 3.046875 13.945312 C 3.046875 14.539062 3.152344 15.117188 3.222656 15.710938 C 3.355469 15.828125 3.289062 15.816406 3.492188 15.757812 C 5.460938 13.601562 5.390625 13.179688 6.28125 10.355469 C 6.761719 11.085938 8.003906 11.480469 8.988281 11.480469 C 13.136719 11.480469 15 8.246094 15 5.332031 C 15 2.226562 11.648438 0.203125 7.96875 0.203125 Z M 7.96875 0.203125 "/>
</g>
</svg>
