<svg xmlns="http://www.w3.org/2000/svg"
 xmlns:xlink="http://www.w3.org/1999/xlink"
 width="19px" height="19px"  viewBox="0 0 19 19">
<path fill-rule="evenodd"  fill="#fe3e57"
 d="M15.656738,12.342773 C14.7854,11.47168 13.748352,10.82666 12.61676,10.435913 C13.828674,9.601196 14.624939,8.204346 14.624939,6.624634 C14.624939,4.074341 12.550171,1.9997559 9.999939,1.9997559 C7.449768,1.9997559 5.374939,4.074341 5.374939,6.624634 C5.374939,8.204346 6.1710815,9.601196 7.3831177,10.435913 C6.251526,10.82666 5.2143555,11.47168 4.3430176,12.342773 C2.8320312,13.853882 1.999939,15.862671 1.999939,17.999512 C1.999939,17.999512 3.249878,17.999512 3.249878,17.999512 C3.249878,14.27771 6.277954,11.249634 9.999939,11.249634 C13.721924,11.249634 16.749878,14.27771 16.749878,17.999512 C16.749878,17.999512 17.999939,17.999512 17.999939,17.999512 C17.999939,15.862671 17.167847,13.853882 15.656738,12.342773 ZM6.625,6.624634 C6.625,4.76355 8.138916,3.2496338 9.999939,3.2496338 C11.86084,3.2496338 13.374939,4.76355 13.374939,6.624634 C13.374939,8.485596 11.86084,9.999512 9.999939,9.999512 C8.138916,9.999512 6.625,8.485596 6.625,6.624634 Z"/>
</svg>