<svg xmlns="http://www.w3.org/2000/svg" width="48" height="33.1" viewBox="0 0 48 33.1">
	<style type="text/css">
		.st2{fill:#059bbf;}
		.st1{fill:#f79f1a;}
		.st0{fill:#ffffff;}
	</style>
	<path class="st0" d="M48,30.26C48,31.83 46.72,33.1 45.16,33.1L2.83,33.1C1.27,33.1 0,31.83 0,30.26L0,2.83C0,1.27 1.27,0 2.83,0L45.16,0C46.72,0 48,1.27 48,2.83Z"/>
	<path class="st1" d="M10.65,16.74L9.52,11.33C9.33,10.59 8.77,10.36 8.07,10.33L2.9,10.33L2.85,10.58C6.88,11.56 9.54,13.91 10.65,16.74"/>
	<path class="st2" d="M22.62,10.44L19.28,10.44L17.2,22.68L20.53,22.68Z"/>
	<path class="st2" d="M12.68,22.67L17.93,10.45L14.4,10.45L11.13,18.8L10.79,17.54C10.15,16.02 8.32,13.84 6.17,12.47L9.15,22.67Z"/>
	<path class="st2" d="M32.14,18.68C32.16,17.29 31.27,16.23 29.34,15.36C28.17,14.79 27.46,14.41 27.47,13.84C27.47,13.33 28.07,12.79 29.38,12.79C30.47,12.77 31.26,13.01 31.88,13.26L32.18,13.4L32.63,10.74C31.97,10.5 30.93,10.23 29.64,10.23C26.34,10.23 24.02,11.89 24,14.27C23.98,16.03 25.66,17.01 26.93,17.6C28.23,18.19 28.66,18.58 28.65,19.11C28.64,19.93 27.62,20.31 26.66,20.31C25.32,20.31 24.62,20.12 23.52,19.66L23.09,19.47L22.62,22.21C23.4,22.55 24.84,22.85 26.34,22.86C29.84,22.86 32.12,21.22 32.14,18.68"/>
	<path class="st2" d="M38.4,14.92C38.38,14.95 38.67,14.21 38.84,13.75L39.07,14.81C39.07,14.81 39.7,17.73 39.84,18.34L37.07,18.34C37.35,17.64 38.4,14.92 38.4,14.92M36.11,20.85C36.49,20.85 39.9,20.85 40.38,20.85C40.48,21.28 40.79,22.68 40.79,22.68L43.88,22.68L41.18,10.46L38.61,10.46C37.81,10.46 37.21,10.67 36.86,11.47L31.91,22.68L35.41,22.68C35.41,22.68 35.98,21.18 36.11,20.85"/>
	<path class="st2" d="M45.16,0L2.83,0C1.27,0 0,1.27 0,2.83L0,5.78L48,5.78L48,2.83C48,1.27 46.72,0 45.16,0"/>
	<path class="st1" d="M45.16,33.1L2.83,33.1C1.27,33.1 0,31.83 0,30.26L0,27.32L48,27.32L48,30.26C48,31.83 46.72,33.1 45.16,33.1"/>
</svg>